<?xml version="1.0" standalone="no"?><!DOCTYPE svg PUBLIC "-//W3C//DTD SVG 1.1//EN" "http://www.w3.org/Graphics/SVG/1.1/DTD/svg11.dtd"><svg t="1757505564963" class="icon" viewBox="0 0 1024 1024" version="1.1" xmlns="http://www.w3.org/2000/svg" p-id="11204" xmlns:xlink="http://www.w3.org/1999/xlink" width="200" height="200"><path d="M481.535 931.985A74.025 74.025 0 0 1 407.33 858.5l-0.315-52.65c-145.8 31.77-176.58-61.965-176.58-61.965-23.85-60.705-58.185-76.815-58.185-76.815-47.565-32.625 3.6-31.95 3.6-31.95 52.56 3.645 80.28 54.09 80.28 54.09 46.755 80.28 122.625 57.105 152.55 43.65 4.68-33.93 18.27-57.06 33.3-70.2-116.46-13.275-238.815-58.32-238.815-259.515 0-57.33 20.43-104.175 54-140.94-5.4-13.23-23.4-66.6 5.085-138.96 0 0 44.01-14.085 144.18 53.82 42.75-11.655 86.85-17.55 131.175-17.64 44.55 0.18 89.37 5.985 131.265 17.64 100.08-67.905 144-53.82 144-53.82 28.575 72.36 10.62 125.73 5.175 138.96C851.66 298.925 872 345.77 872 403.1c0 201.69-122.625 246.105-239.31 259.11 18.765 16.29 35.55 48.195 35.55 97.2 0 70.29-0.27 99-0.27 99a74.025 74.025 0 0 1-74.115 73.575H481.535z" fill="#1D1929" p-id="11205"></path></svg>